<?xml version="1.0" encoding="UTF-8" standalone="no"?>
<!-- Created with Inkscape (http://www.inkscape.org/) -->

<svg
   xmlns:dc="http://purl.org/dc/elements/1.1/"
   xmlns:cc="http://creativecommons.org/ns#"
   xmlns:rdf="http://www.w3.org/1999/02/22-rdf-syntax-ns#"
   xmlns:svg="http://www.w3.org/2000/svg"
   xmlns="http://www.w3.org/2000/svg"
   xmlns:sodipodi="http://sodipodi.sourceforge.net/DTD/sodipodi-0.dtd"
   xmlns:inkscape="http://www.inkscape.org/namespaces/inkscape"
   width="252.3692mm"
   height="86.128357mm"
   viewBox="0 0 894.22158 305.17922"
   id="svg4177"
   version="1.1"
   inkscape:version="0.91 r"
   sodipodi:docname="glasses.svg">
  <defs
     id="defs4179" />
  <sodipodi:namedview
     id="base"
     pagecolor="#ffffff"
     bordercolor="#666666"
     borderopacity="1.0"
     inkscape:pageopacity="0.0"
     inkscape:pageshadow="2"
     inkscape:zoom="0.35"
     inkscape:cx="-305.03208"
     inkscape:cy="455.44675"
     inkscape:document-units="px"
     inkscape:current-layer="layer1"
     showgrid="false"
     fit-margin-top="0"
     fit-margin-left="0"
     fit-margin-right="0"
     fit-margin-bottom="0"
     inkscape:window-width="1920"
     inkscape:window-height="1018"
     inkscape:window-x="0"
     inkscape:window-y="0"
     inkscape:window-maximized="1" />
  <metadata
     id="metadata4182">
    <rdf:RDF>
      <cc:Work
         rdf:about="">
        <dc:format>image/svg+xml</dc:format>
        <dc:type
           rdf:resource="http://purl.org/dc/dcmitype/StillImage" />
        <dc:title></dc:title>
      </cc:Work>
    </rdf:RDF>
  </metadata>
  <g
     inkscape:label="Layer 1"
     inkscape:groupmode="layer"
     id="layer1"
     transform="translate(32.825065,-682.62973)">
    <path
       style="fill:#000000;fill-opacity:1"
       d="m 637.26807,987.55441 c -7.93536,-0.41094 -14.5768,-1.06068 -21.32191,-2.08598 -1.71463,-0.26063 -4.28662,-0.61524 -5.71552,-0.78809 -2.23542,-0.27032 -10.98672,-2.02818 -16.88664,-3.39209 -11.7599,-2.71847 -22.12882,-6.42211 -33.29983,-11.89428 -8.21368,-4.02353 -11.01168,-5.62518 -17.10039,-9.78833 -14.87515,-10.17089 -26.71922,-21.8954 -39.05131,-38.65712 -2.60992,-3.54736 -11.86849,-17.91052 -11.86849,-18.41203 0,-0.16765 -0.43038,-0.92551 -0.9564,-1.68403 -1.98897,-2.8685 -11.90292,-21.98277 -14.05505,-27.09891 -0.66126,-1.57177 -1.87973,-4.29403 -2.70776,-6.04959 -0.82808,-1.75547 -1.50561,-3.32682 -1.50561,-3.49179 0,-0.16505 -0.55837,-1.53449 -1.2408,-3.04328 -2.0257,-4.47861 -3.23061,-7.30767 -3.93466,-9.23811 -0.3646,-1.00021 -1.06828,-2.75382 -1.56347,-3.89692 -0.49513,-1.1431 -1.53849,-3.83197 -2.3182,-5.97529 -0.77991,-2.1433 -1.61489,-4.36454 -1.85565,-4.9361 -0.24057,-0.57154 -0.84503,-2.20825 -1.34313,-3.63712 -0.49811,-1.42887 -1.10085,-2.82008 -1.33934,-3.09156 -0.23848,-0.27149 -0.43366,-0.98463 -0.43366,-1.58475 0,-0.60013 -0.19712,-1.31327 -0.4382,-1.58475 -0.24089,-0.27149 -0.84415,-1.89649 -1.34055,-3.61116 -1.02343,-3.53554 -1.76089,-5.76271 -2.40863,-7.27424 -0.24493,-0.57156 -1.01946,-2.79566 -1.72106,-4.94249 -1.21291,-3.7118 -1.52933,-4.55551 -3.30876,-8.82665 -3.94695,-9.47362 -9.08813,-15.87373 -15.76314,-19.62298 -1.18224,-0.66404 -3.93657,-1.81128 -6.12076,-2.54942 -3.59574,-1.21522 -4.78178,-1.3473 -12.54447,-1.39727 -9.14929,-0.0589 -10.55093,0.20638 -16.2706,3.07913 -10.01595,5.03067 -18.5019,16.77704 -26.06366,36.07824 -0.50382,1.28598 -1.12195,2.86423 -1.37344,3.50722 -0.25166,0.64301 -0.67999,1.69517 -0.95187,2.33816 -0.27193,0.64299 -1.11368,3.0396 -1.87056,5.32579 -0.75688,2.2862 -1.56707,4.62436 -1.80037,5.1959 -0.2333,0.57156 -1.29204,3.26043 -2.35268,5.97529 -1.06069,2.71485 -2.2578,5.69106 -2.66048,6.61386 -0.40269,0.92274 -1.04631,2.55944 -1.43008,3.63712 -0.38399,1.07763 -1.33484,3.36227 -2.11303,5.07692 -0.77814,1.71464 -1.60516,3.58516 -1.83775,4.15671 -1.72714,4.24328 -12.12117,25.60088 -15.17203,31.1754 -16.66117,30.44254 -38.64035,54.36822 -63.85968,69.51549 -4.24176,2.54771 -13.41042,7.33689 -16.82173,8.78667 -7.5344,3.20225 -10.02426,4.16186 -15.58768,6.00783 -8.65446,2.87154 -13.03252,4.16726 -16.36707,4.84406 -1.57176,0.31898 -3.79301,0.79734 -4.9361,1.06299 -15.01563,3.48945 -29.63966,5.03767 -51.69918,5.47331 -15.33483,0.30285 -22.8701,-0.0263 -32.47438,-1.41993 -3.87475,-0.56214 -18.52631,-3.36077 -21.56297,-4.11881 -1.00022,-0.24964 -2.87073,-0.71144 -4.15671,-1.02628 -3.03321,-0.74244 -9.32058,-2.59925 -10.6516,-3.14553 -0.57155,-0.23461 -2.20825,-0.82018 -3.637115,-1.30129 -3.34599,-1.12657 -3.62362,-1.2367 -11.17119,-4.43168 -10.21668,-4.32483 -22.780201,-11.69545 -31.616871,-18.54845 -2.47202,-1.91715 -7.4173,-6.4219 -10.98949,-10.01047 -12.2126,-12.26882 -21.51032,-27.74055 -25.75347,-42.85489 -0.48148,-1.71466 -1.0532,-3.58518 -1.27073,-4.1567 -0.21771,-0.57157 -0.64499,-1.97447 -0.94964,-3.11758 -1.53677,-5.76425 -2.29987,-8.42274 -2.72906,-9.50695 -0.2598,-0.65641 -0.47248,-1.75327 -0.47248,-2.43737 0,-0.68415 -0.20229,-1.36891 -0.449439,-1.52165 -0.24715,-0.15277 -0.591126,-1.16031 -0.763973,-2.23893 -0.283347,-1.76676 -1.052345,-5.11118 -2.452111,-10.66425 -1.2206932,-4.84217 -1.5423202,-6.21623 -2.8286552,-12.08047 -1.940494,-8.84722 -2.134123,-9.75931 -3.363479,-15.84749 -0.605844,-3.00063 -1.324603,-6.17371 -1.597216,-7.05135 -0.272613,-0.87759 -0.495687,-2.32517 -0.495687,-3.21678 0,-0.89162 -0.203504,-1.74691 -0.452394,-1.90072 -0.248879,-0.15379 -0.579866,-1.39515 -0.735215,-2.75849 -0.155876,-1.36341 -0.66733099,-4.46635 -1.13703999,-6.89543 -0.469881,-2.42908 -1.085074,-5.7025 -1.36720801,-7.27426 -0.282135,-1.57176 -0.735914,-4.08527 -1.008527,-5.58559 -0.846231,-4.65812 -1.391983,-8.02693 -1.992449,-12.29926 -0.766571,-5.45403 -1.581115,-8.01524 -4.164165,-13.09335 -3.4320718,-6.74698 -8.6383458,-11.29833 -15.9018698,-13.90152 -4.551607,-1.63125 -6.037114,-2.60928 -7.352546,-4.84081 l -1.284075,-2.17802 0.24421,-22.50249 c 0.281789,-25.96619 0.627489,-29.43253 3.294889,-33.02471 2.218648,-2.98796 5.644131,-4.03431 14.969725,-4.5726 6.3798688,-0.36829 17.0345758,-1.29737 20.5237878,-1.78957 1.857539,-0.26203 7.5860182,-0.84943 12.7299472,-1.30522 5.14394,-0.45584 10.17097,-0.94617 11.17118,-1.08968 1.00021,-0.1434 3.9229,-0.46144 6.49487,-0.70664 2.57197,-0.24514 6.89755,-0.69304 9.61242,-0.99522 10.73524,-1.19511 20.31111,-2.17838 26.247251,-2.69511 3.42495,-0.29809 8.33144,-0.74738 10.90341,-0.99839 2.57197,-0.25102 9.1188,-0.83224 14.54851,-1.2916 41.082235,-3.47574 48.656995,-3.82423 83.134365,-3.82491 31.12186,0 40.3458,0.41126 55.8559,2.49387 2.14331,0.2878 6.70271,0.88367 10.132,1.32418 3.42929,0.44046 7.52105,1.00983 9.09281,1.26515 1.57176,0.25537 4.37755,0.69599 6.23509,0.97922 1.85754,0.28323 5.48168,0.90185 8.05362,1.37477 2.57199,0.47293 5.96232,1.07925 7.53408,1.34735 1.57175,0.26817 3.90993,0.70878 5.1959,0.97923 1.28597,0.27044 4.32557,0.87218 6.75467,1.33727 4.27291,0.81804 6.22745,1.22451 11.17116,2.32309 1.28601,0.28576 3.33178,0.73053 4.5464,0.98841 1.21448,0.25786 3.96191,0.85233 6.10519,1.32105 2.14332,0.46872 4.89593,0.99023 6.11714,1.15884 1.22103,0.1687 2.34541,0.50947 2.4987,0.75731 0.15241,0.24789 0.83776,0.45068 1.52154,0.45068 0.68359,0 2.59881,0.36326 4.25594,0.8072 2.79768,0.7495 8.71594,2.01023 12.36557,2.63426 0.85731,0.14653 2.0264,0.4657 2.59793,0.70924 0.57157,0.24353 1.85754,0.56609 2.85777,0.71688 1.00018,0.15068 3.45525,0.64465 5.45569,1.09763 2.00042,0.45293 4.80621,1.05981 6.23505,1.34865 1.42888,0.28884 3.5332,0.73734 4.67631,0.99662 2.16325,0.4907 8.65966,1.72431 14.02895,2.66388 1.71463,0.30007 4.28661,0.75897 5.71546,1.01981 1.42888,0.26083 4.11775,0.69448 5.97529,0.96363 1.85754,0.26915 3.84497,0.61182 4.41651,0.76146 1.69507,0.44372 18.80379,1.41915 24.42075,1.39229 12.67295,-0.0606 25.53125,-1.37021 40.78776,-4.15395 1.57176,-0.28678 4.96209,-0.90426 7.53408,-1.3721 2.57197,-0.46789 5.66991,-1.0624 6.88454,-1.32115 1.21448,-0.25876 3.20192,-0.67724 4.41654,-0.92991 4.39623,-0.91459 15.24596,-3.25887 17.27634,-3.7329 1.1431,-0.26686 3.83197,-0.83544 5.97529,-1.26353 2.14329,-0.42809 6.00124,-1.26531 8.57323,-1.86049 4.95583,-1.14684 6.23906,-1.41932 13.24956,-2.81364 2.42907,-0.48312 5.58555,-1.11093 7.01443,-1.3952 1.42889,-0.28422 3.59158,-0.73008 4.80622,-0.9907 4.66281,-1.00063 7.31081,-1.51118 12.08047,-2.32922 2.71486,-0.46561 6.10519,-1.05476 7.53403,-1.3092 1.42889,-0.25445 4.00086,-0.68462 5.71549,-0.9559 1.71467,-0.27127 5.31871,-0.86527 8.00915,-1.31996 2.69044,-0.45469 6.89908,-1.07083 9.35261,-1.36923 2.45349,-0.29834 5.86392,-0.7348 7.57855,-0.96986 3.14838,-0.43158 15.37451,-1.71537 24.94029,-2.61879 34.35431,-2.24362 65.84231,-2.9087 96.64374,-0.0211 18.25462,1.73178 23.28732,2.22607 26.75891,2.62819 2.14332,0.24826 6.3317,0.70165 9.30739,1.00754 2.97587,0.30587 8.23676,0.91649 11.69074,1.35695 3.45431,0.44041 8.15084,1.033 10.43701,1.31691 2.28626,0.28384 5.79343,0.72129 7.79388,0.97204 2.00045,0.25076 6.67674,0.82896 10.39173,1.28479 9.23281,1.13297 13.41344,1.68524 25.5898,3.38041 1.92889,0.26856 5.72858,0.7297 8.44343,1.02477 2.71484,0.29508 6.45587,0.77383 8.31339,1.06392 1.85759,0.29008 4.31265,0.64491 5.45574,0.78852 6.35266,0.79831 10.2859,1.3207 13.76909,1.8287 2.14332,0.31264 5.92733,0.79711 8.40892,1.07655 5.19904,0.58552 7.43079,1.38989 9.2572,3.33633 1.75257,1.86777 2.00681,5.36275 2.39282,32.88572 0.2721,19.41349 0.21206,22.17126 -0.51713,23.70769 -1.13672,2.39546 -2.55868,3.18514 -7.08044,3.93209 -5.81792,0.9611 -9.07625,2.91188 -12.8455,7.6905 -4.18168,5.30169 -7.7197,14.5758 -9.1624,24.01653 -0.15241,1.00021 -0.52259,3.16302 -0.82137,4.80621 -0.29894,1.64321 -0.78629,4.33208 -1.08312,5.97529 -1.20861,6.69294 -2.1752,11.94895 -2.60364,14.15881 -0.24926,1.286 -0.67582,3.62414 -0.94792,5.1959 -0.27211,1.57177 -1.12669,5.89735 -1.89895,9.61241 -0.77242,3.71507 -1.61108,7.74839 -1.86377,8.96293 -0.25269,1.21453 -0.66505,3.20197 -0.91643,4.41651 -1.04534,5.05187 -1.72698,8.14898 -2.65843,12.08046 -0.54193,2.28619 -1.35261,5.79342 -1.80193,7.79386 -0.44924,2.00042 -1.0464,4.51392 -1.32716,5.5856 -0.28059,1.07164 -0.73676,2.82523 -1.01376,3.8969 -4.64096,17.95863 -10.59114,32.69442 -18.88345,46.76636 -12.59166,21.36759 -32.71423,38.64141 -55.30231,47.47351 -8.56182,3.34768 -16.41403,5.71535 -25.85139,7.7949 -7.56559,1.6671 -13.46926,2.5326 -27.79798,4.07539 -6.67552,0.71875 -39.32741,1.07839 -49.60214,0.54634 z M 183.90724,970.90615 c 16.19995,-0.97325 32.266,-3.51888 42.60636,-6.75092 0.71444,-0.22329 2.70187,-0.8125 4.41652,-1.30933 16.52295,-4.7876 34.88128,-14.45443 49.58236,-26.10816 4.55905,-3.61408 18.49133,-17.08364 22.15254,-21.417 11.64125,-13.77811 17.91409,-23.58715 25.58567,-40.00841 2.9116,-6.23249 8.64701,-20.88705 10.52323,-26.88811 0.87116,-2.78665 1.77907,-5.5343 2.0174,-6.10585 0.23813,-0.57155 0.6874,-1.97444 0.99811,-3.11753 1.86481,-6.85988 2.31653,-8.43284 2.73065,-9.507 0.25303,-0.65639 0.46001,-1.83716 0.46001,-2.62392 0,-0.78671 0.19259,-1.6525 0.42811,-1.92399 0.23556,-0.27148 0.83535,-2.71486 1.33312,-5.42972 0.49774,-2.71484 1.10549,-5.87136 1.3506,-7.01446 0.24521,-1.1431 0.6867,-3.71506 0.98114,-5.71549 0.29445,-2.00041 0.7875,-5.27383 1.09562,-7.27424 0.79065,-5.13407 0.77662,-24.54423 -0.0208,-27.93539 -0.93768,-3.99013 -2.49541,-8.56601 -4.02162,-11.81324 -5.21893,-11.10394 -16.31618,-22.35005 -30.44155,-30.8497 -3.75251,-2.25809 -16.43204,-8.63912 -17.16639,-8.63912 -0.27158,0 -1.73214,-0.61571 -6.27735,-2.64617 -4.84622,-2.16482 -27.38498,-8.67159 -35.8517,-10.35006 -11.17601,-2.21554 -22.2845,-3.94406 -32.99394,-5.13387 -16.30836,-1.81192 -17.9016,-1.87353 -47.54246,-1.83903 -29.55288,0.0342 -35.60732,0.26873 -53.51775,2.07155 -20.89773,2.10351 -35.811505,5.70811 -48.581635,11.74206 -19.796891,9.35401 -31.367281,23.02711 -39.504591,46.68352 -0.64272,1.86865 -2.61751,9.82046 -3.54845,14.28872 -0.68083,3.26806 -1.87502,11.71576 -2.75452,19.48462 -1.04645,9.24621 -0.87152,44.93979 0.26639,54.29714 3.8311,31.5058 11.57074,54.25482 25.19022,74.04153 7.22576,10.4976 18.461021,21.43272 28.924171,28.15146 3.96239,2.54446 10.05719,6.14145 10.40583,6.14145 0.11951,0 1.91971,0.82892 3.99911,1.84208 5.964195,2.90583 16.844925,6.57237 24.044705,8.10242 1.42887,0.30369 3.53322,0.76229 4.67631,1.01912 13.6692,3.07155 34.4921,3.97459 58.45386,2.53504 z m -81.3979,-17.42207 c -0.26482,-0.68992 0.2889,-3.70663 2.42649,-13.22303 0.22464,-1.00022 0.66144,-2.98767 0.97059,-4.41651 0.30916,-1.42888 0.92591,-4.23467 1.37052,-6.23508 0.44459,-2.00042 1.05718,-4.80621 1.36132,-6.2351 0.53846,-2.5302 1.07573,-4.86179 1.97564,-8.57321 0.24265,-1.00023 0.83741,-3.68909 1.32202,-5.97529 0.48459,-2.2862 1.07018,-4.97507 1.30139,-5.97529 0.23139,-1.00018 0.67339,-2.98763 0.98255,-4.41651 0.30915,-1.42884 0.91725,-4.23453 1.35145,-6.23488 0.43403,-2.00029 0.78926,-3.69167 0.78926,-3.75853 0,-0.0669 -6.25465,-0.18388 -13.89903,-0.26001 l -13.899015,-0.13837 0,-12.21038 0,-12.21035 16.734595,-0.13701 16.7346,-0.13699 0.32561,-1.94129 c 0.17926,-1.06771 0.51283,-2.64274 0.74162,-3.50005 0.22863,-0.85733 0.81594,-3.54622 1.30522,-5.97529 0.48911,-2.42909 1.10083,-4.95361 1.35907,-5.61007 0.25824,-0.65639 0.46954,-1.75605 0.46954,-2.44357 0,-0.68753 0.21147,-1.78719 0.47005,-2.44359 0.25859,-0.65645 0.75376,-2.59644 1.1005,-4.31108 0.60947,-3.01336 1.57782,-7.49706 2.60886,-12.08047 2.0768,-9.23082 3.05414,-13.82634 3.2088,-15.08712 l 0.14549,-1.18814 -22.08257,0.0173 c -12.145405,0.009 -22.379235,-0.17402 -22.741915,-0.40751 -0.50833,-0.32719 -0.62749,-3.15625 -0.51959,-12.33829 l 0.14029,-11.91372 25.535065,-0.13475 25.53524,-0.13475 0.54956,-2.98281 c 0.3024,-1.6405 0.91638,-4.61947 1.36461,-6.61988 1.25429,-5.59863 1.63273,-7.31088 3.10005,-14.02892 0.74906,-3.4293 1.60207,-7.28726 1.89563,-8.57324 0.29357,-1.28598 0.72795,-3.27342 0.96523,-4.41651 0.4148,-1.99891 2.77305,-12.60519 3.6392,-16.36707 0.23018,-1.00022 0.93596,-4.27364 1.56847,-7.27427 0.63234,-3.00062 1.31976,-5.63521 1.5276,-5.85469 0.20767,-0.21941 6.20719,-0.33633 13.33232,-0.25978 11.15144,0.11985 12.94264,0.24768 12.8699,0.91858 -0.0952,0.87338 -0.78009,4.19314 -1.98467,9.6124 -0.4446,2.00043 -1.06134,4.80622 -1.3705,6.23508 -0.30915,1.42888 -0.7482,3.41631 -0.97579,4.41651 -0.22776,1.00022 -1.05113,4.74127 -1.82999,8.31344 -0.77887,3.57218 -1.60572,7.31324 -1.83727,8.31344 -0.23174,1.00021 -1.03659,4.62435 -1.78877,8.05364 -2.20376,10.0472 -2.25918,10.29588 -2.77774,12.47015 -0.526,2.20629 -1.63947,7.54746 -1.63947,7.86477 0,0.10391 11.67205,0.18888 25.93809,0.18888 l 25.93827,0 0.27711,-1.42887 c 0.93163,-4.80547 3.02072,-14.69904 3.4286,-16.23718 0.26517,-1.00021 0.63424,-2.52001 0.82026,-3.37733 0.18584,-0.85733 0.92054,-4.24766 1.63255,-7.53406 0.71201,-3.2864 1.47857,-6.79364 1.70357,-7.79384 0.2248,-1.00022 0.80034,-3.68909 1.27906,-5.97529 0.47853,-2.28619 1.21842,-5.67651 1.64414,-7.53405 0.81906,-3.57436 1.41883,-6.23019 2.31772,-10.26189 0.30258,-1.35744 0.78095,-3.34886 1.06273,-4.42541 l 0.51233,-1.95735 13.09625,0.13873 13.09608,0.13875 -0.0624,1.29896 c -0.0348,0.71444 -0.70633,4.22166 -1.49263,7.79384 -0.78647,3.57218 -1.60571,7.31324 -1.82048,8.31344 -2.20754,10.28082 -3.73982,17.20154 -4.14111,18.70524 -0.2669,1.00021 -0.63737,2.52001 -0.82338,3.37733 -0.18585,0.85733 -0.92055,4.24765 -1.63255,7.53405 -0.71202,3.28641 -1.48326,6.79364 -1.71361,7.79385 -0.58298,2.53035 -1.59185,7.16125 -2.06382,9.47441 l -0.39592,1.94035 14.34742,0.13804 14.34727,0.13803 0.14028,11.69021 c 0.12646,10.62103 0.0572,11.75093 -0.76707,12.35366 -0.69105,0.50535 -4.686,0.65686 -16.76698,0.63598 -8.72289,-0.0156 -16.15215,-0.0213 -16.50929,-0.0138 -0.3573,0.009 -0.64948,0.51299 -0.64948,1.12283 0,0.60985 -0.22655,1.95428 -0.50349,2.98764 -0.60342,2.25238 -2.59587,10.91757 -3.17971,13.8294 -0.22914,1.14311 -0.64239,3.01362 -0.91794,4.15673 -0.27573,1.14309 -0.89768,3.94888 -1.38229,6.23507 -0.4846,2.2862 -1.07866,4.97507 -1.32028,5.97529 -0.2416,1.0002 -0.70767,2.98764 -1.03536,4.41652 -0.32787,1.42885 -0.78597,3.41629 -1.01788,4.4165 -0.23208,1.00021 -0.77852,3.57219 -1.21428,5.71549 -0.43594,2.1433 -0.94964,4.30609 -1.14154,4.8062 -0.32907,0.85738 0.94133,0.90929 22.26616,0.90929 12.43845,0 22.98507,0.14184 23.43712,0.31539 0.71635,0.27481 0.82201,1.8381 0.82201,12.15476 0,10.31665 -0.10563,11.87997 -0.82201,12.15475 -0.45205,0.1735 -12.20394,0.31542 -26.11561,0.31542 l -25.29381,0 -1.21722,5.58556 c -0.6694,3.07209 -1.41363,6.52087 -1.65385,7.66397 -0.24023,1.1431 -0.65867,3.01361 -0.9299,4.15671 -0.27122,1.1431 -0.88971,3.94889 -1.37414,6.23509 -0.48461,2.2862 -1.07087,4.97507 -1.30278,5.97529 -0.48011,2.07003 -0.90547,3.96482 -2.85793,12.72993 -0.76379,3.42929 -1.57452,7.05344 -1.80176,8.05363 -0.22724,1.00022 -1.02964,4.72952 -1.78322,8.28744 -0.75358,3.5578 -1.65906,6.65464 -2.0122,6.88172 -0.35316,0.22719 -6.25361,0.35578 -13.1122,0.2859 l -12.47015,-0.12712 0.0502,-1.81859 c 0.0434,-1.58337 0.78683,-5.47777 2.28326,-11.95053 0.23138,-1.00023 0.67339,-2.98767 0.98254,-4.41656 0.30915,-1.42883 0.9259,-4.23463 1.3705,-6.23504 0.44477,-2.00042 1.05737,-4.8062 1.36133,-6.23509 0.30414,-1.42888 0.73954,-3.41631 0.96765,-4.4165 0.2281,-1.00023 0.66767,-2.98767 0.97683,-4.41651 0.30915,-1.42889 0.92591,-4.23468 1.3705,-6.23509 0.44477,-2.00042 1.05737,-4.8062 1.36133,-6.23509 0.30413,-1.42884 0.73955,-3.41628 0.96765,-4.41651 0.22809,-1.00018 0.66681,-2.98762 0.97458,-4.41651 0.30811,-1.42888 0.70958,-3.12402 0.89248,-3.76702 l 0.33253,-1.16908 -25.93255,0 -25.93272,0 -1.19939,5.58559 c -1.24806,5.81279 -1.94638,8.99618 -2.65008,12.08045 -0.71704,3.14296 -3.18422,14.19551 -3.65342,16.36709 -0.24698,1.14309 -0.67096,3.01361 -0.94218,4.1567 -0.27122,1.14311 -0.88954,3.9489 -1.37415,6.23509 -0.48459,2.2862 -1.07017,4.97507 -1.30139,5.97529 -0.23139,1.00019 -0.67339,2.98763 -0.98254,4.41651 -0.30916,1.42888 -0.9105,4.20266 -1.33656,6.16397 -0.42589,1.96125 -1.04351,3.89026 -1.37259,4.2866 -0.47923,0.57768 -3.06245,0.72062 -13.02076,0.72062 -10.74494,0 -12.46477,-0.10896 -12.73218,-0.80588 z m 97.74022,-90.60175 c 0.1628,-0.26363 0.55094,-1.72498 0.86234,-3.24743 0.31141,-1.5224 0.75566,-3.58637 0.98722,-4.58658 0.23157,-1.00021 0.80554,-3.57218 1.27559,-5.71549 0.47005,-2.1433 1.05235,-4.71527 1.29413,-5.71549 0.24161,-1.0002 0.6727,-2.87072 0.9576,-4.15671 1.39909,-6.31312 3.34114,-15.00347 3.71559,-16.62687 0.76692,-3.32418 2.23977,-10.10499 2.6241,-12.08047 l 0.37895,-1.94845 -25.85063,0 -25.8508,0 -0.27191,1.42886 c -0.35263,1.85348 -2.28187,10.70111 -2.91733,13.37943 -0.89526,3.77322 -1.95313,8.53473 -3.40557,15.3279 -1.01978,4.77062 -1.481,6.79988 -2.83314,12.47016 -0.57936,2.42908 -1.27525,5.58559 -1.5463,7.01447 -0.27105,1.42887 -0.65556,3.12402 -0.8542,3.76703 l -0.36129,1.16907 25.74965,0 c 15.16701,0 25.87142,-0.19703 26.046,-0.47943 z M 685.5712,970.62606 c 17.96621,-1.61788 26.11289,-3.15166 39.49435,-7.43568 27.71826,-8.87377 47.22156,-26.39317 58.64092,-52.67583 0.46556,-1.07165 1.17458,-2.7084 1.57576,-3.63713 1.45869,-3.37798 4.89227,-14.29639 6.2501,-19.87431 2.31881,-9.5252 2.97741,-12.95098 4.39579,-22.86196 0.28622,-2.00042 0.7667,-5.18391 1.06754,-7.07438 0.30098,-1.89047 0.54715,-4.31857 0.54715,-5.39577 0,-1.07723 0.226,-3.38841 0.50226,-5.13601 1.39806,-8.84575 2.15197,-54.80222 1.0792,-65.78801 -0.80643,-8.25804 -1.32845,-10.91777 -3.92582,-20.0042 -1.46219,-5.11463 -1.35497,-4.83681 -4.31403,-11.17118 -3.81755,-8.17247 -10.73147,-16.60001 -18.54175,-22.60117 -3.00409,-2.30823 -13.29212,-8.57422 -14.07808,-8.57422 -0.12296,0 -1.21309,-0.45672 -2.42455,-1.0149 -12.00478,-5.53152 -29.29656,-9.77302 -50.78423,-12.45691 -16.1327,-2.01503 -24.43815,-2.34772 -58.71362,-2.35183 -39.78884,-0.005 -45.30776,0.34719 -73.0024,4.65605 -5.51147,0.85748 -6.07956,0.97371 -16.62689,3.40268 -25.53315,5.87994 -45.43256,15.34733 -58.38092,27.77551 -9.22118,8.85064 -14.07464,16.95775 -17.30182,28.89954 -1.05233,3.89483 -1.17705,5.56584 -1.19557,16.03858 -0.0208,11.67643 0.24974,14.79007 2.41609,27.79806 1.53089,9.19238 3.48507,18.78909 4.91998,24.16092 0.41985,1.57175 1.34021,5.0287 2.0453,7.68208 1.21463,4.57121 4.56337,14.97386 6.94621,21.57757 10.11606,28.03607 28.02822,54.14291 49.11025,71.57816 10.80763,8.9381 26.23892,17.84122 40.01791,23.08852 12.57079,4.78716 25.47327,7.97735 41.04764,10.14917 14.84744,2.07042 43.41,2.67158 59.23323,1.24665 z m -60.88316,-18.01581 c -0.27105,-0.36218 -0.75684,-1.8275 -1.07952,-3.25638 -1.27657,-5.65376 -2.11214,-9.49191 -2.71453,-12.47015 -0.34668,-1.71466 -0.84185,-3.65466 -1.1005,-4.31109 -0.25856,-0.6564 -0.46996,-1.69201 -0.46996,-2.30125 0,-0.60925 -0.22502,-1.82582 -0.50023,-2.70339 -0.27488,-0.87763 -0.87548,-3.4662 -1.33467,-5.75237 -0.45918,-2.28619 -1.03767,-4.9751 -1.28562,-5.97528 -0.83884,-3.38185 -2.59018,-11.28234 -3.6285,-16.36709 -0.35003,-1.71463 -0.82513,-3.70207 -1.05546,-4.41651 -0.23033,-0.71445 -0.72119,-2.76032 -1.09079,-4.5464 l -0.67181,-3.24746 -25.50856,0 c -19.14725,0 -25.6641,-0.15552 -26.13209,-0.62352 -0.8833,-0.88329 -0.8833,-22.80997 0,-23.69327 0.4659,-0.46597 6.37588,-0.62351 23.3914,-0.62351 l 22.7679,0 -0.29892,-1.42888 c -0.4072,-1.94559 -1.09996,-5.11135 -1.73404,-7.92374 -0.28994,-1.28598 -0.90201,-4.09177 -1.36045,-6.23507 -0.45845,-2.14331 -1.04475,-4.71528 -1.30316,-5.7155 -0.25841,-1.00021 -0.60826,-2.52001 -0.77744,-3.37733 -0.16975,-0.85732 -0.51009,-2.37712 -0.75726,-3.37733 -0.24733,-1.00021 -0.84605,-3.68908 -1.33066,-5.97528 -0.82354,-3.88581 -1.2063,-5.57837 -2.29121,-10.132 -0.2383,-1.00022 -0.83326,-3.68717 -1.32218,-5.97102 -0.48894,-2.28381 -1.00177,-4.33515 -1.13982,-4.55847 -0.13856,-0.22332 -7.71883,-0.3886 -16.8463,-0.36736 -9.12747,0.0213 -16.82622,-0.10412 -17.10835,-0.27838 -0.31279,-0.19334 -0.51301,-4.84471 -0.51301,-11.92157 0,-10.1025 0.10562,-11.64536 0.82182,-11.91992 0.45205,-0.17349 7.00336,-0.31539 14.55839,-0.31539 l 13.73654,0 -0.29893,-1.42887 c -0.16452,-0.78588 -0.50678,-2.36413 -0.76051,-3.50723 -0.25372,-1.1431 -0.83808,-3.83198 -1.29843,-5.97528 -1.11177,-5.17599 -1.7886,-8.18749 -2.33521,-10.3918 -0.24803,-1.0002 -0.82997,-3.68908 -1.29328,-5.97528 -0.4633,-2.2862 -1.05285,-4.97507 -1.31006,-5.97528 -0.25735,-1.00021 -0.60844,-2.52002 -0.78023,-3.37734 -0.6746,-3.36652 -1.23422,-5.95954 -2.57856,-11.95056 -0.7697,-3.42929 -1.59584,-7.17033 -1.83623,-8.31344 -0.24025,-1.14309 -0.76502,-3.53357 -1.16598,-5.31223 -0.4011,-1.77861 -0.57829,-3.47798 -0.39383,-3.77633 0.22205,-0.35945 4.69173,-0.49548 13.25143,-0.40326 l 12.91616,0.13926 0.4413,1.55878 c 0.24266,0.85731 0.69207,2.72783 0.99865,4.15671 0.30673,1.42887 0.74683,3.41631 0.97823,4.41651 0.23122,1.00021 0.81677,3.68908 1.30139,5.97528 0.48459,2.2862 1.1029,5.09198 1.37413,6.23508 0.27128,1.1431 0.68797,3.01362 0.92605,4.15672 0.23816,1.1431 1.0628,4.88414 1.83228,8.31344 0.76972,3.42929 1.59274,7.17033 1.82935,8.31343 0.23653,1.1431 1.05978,4.88414 1.82926,8.31344 1.99196,8.87761 2.36417,10.66323 2.68074,12.85985 l 0.28077,1.94845 26.21539,0 c 16.09329,0 26.09967,-0.1872 25.91576,-0.48488 -0.16457,-0.26665 -0.50889,-1.49418 -0.76451,-2.72784 -1.11974,-5.4042 -2.26161,-10.71296 -2.71762,-12.63477 -0.27121,-1.14309 -0.69883,-3.01362 -0.95029,-4.15671 -0.25155,-1.1431 -1.07471,-4.88415 -1.82951,-8.31344 -0.75463,-3.42929 -1.56931,-7.17034 -1.81042,-8.31343 -0.2411,-1.14311 -1.06532,-4.88415 -1.83171,-8.31344 -0.76654,-3.42929 -1.62683,-7.28725 -1.91175,-8.57324 -0.28491,-1.28598 -0.7065,-3.1565 -0.93667,-4.15671 -1.2259,-5.326 -1.59428,-7.96511 -1.17099,-8.38836 0.25497,-0.25495 6.15946,-0.40087 13.12087,-0.32422 l 12.65742,0.13942 0.47404,1.55877 c 0.26076,0.85732 0.66765,2.49403 0.90443,3.63712 0.23653,1.1431 1.05979,4.88415 1.82943,8.31344 0.76957,3.4293 1.59412,7.17034 1.83228,8.31343 0.23817,1.14311 0.65607,3.01362 0.92851,4.15673 0.27259,1.14309 0.74435,3.24743 1.04852,4.67631 0.30393,1.42887 0.91651,4.23465 1.36127,6.23507 0.74059,3.33182 1.05651,4.78152 2.37852,10.91139 0.24649,1.14309 0.81248,3.71506 1.25764,5.71549 1.39194,6.25446 1.93183,8.77223 2.28439,10.65158 l 0.34129,1.81857 25.19124,0.1311 c 22.94748,0.11951 25.24924,0.20936 25.84093,1.00858 0.75162,1.0155 0.93406,21.76801 0.20137,22.92327 -0.34635,0.54618 -4.86354,0.67213 -22.75232,0.63437 -12.27599,-0.026 -22.45542,0.0883 -22.62096,0.25376 -0.16628,0.16557 -0.0919,1.16607 0.16448,2.22343 0.2562,1.05731 0.71996,3.09152 1.03107,4.52037 0.31102,1.42888 0.75153,3.41631 0.97908,4.41652 1.06223,4.67121 3.24708,14.49957 3.63838,16.36709 0.23931,1.14309 1.06232,4.88413 1.82894,8.31343 0.76639,3.42929 1.6266,7.28724 1.91176,8.57322 0.28491,1.28599 0.73374,3.27342 0.99736,4.41652 0.26362,1.1431 0.62213,2.95517 0.79674,4.02682 l 0.3173,1.94846 16.54025,0 c 15.82102,0 16.56349,0.0437 17.07801,1.00505 0.31976,0.59731 0.53801,5.24834 0.53801,11.46512 0,6.21677 -0.21825,10.86778 -0.53801,11.46511 -0.51092,0.95458 -1.22459,1.00502 -14.22168,1.00502 l -13.68367,0 0.50365,2.46807 c 0.27693,1.35742 0.6928,3.28639 0.92378,4.2866 0.8279,3.58135 3.21769,14.32793 3.6396,16.36709 0.38707,1.87067 2.57574,11.7272 3.63438,16.36706 0.22821,1.00022 0.64807,2.87074 0.93299,4.15675 1.88124,8.48835 3.37043,15.13429 3.84203,17.14644 0.30132,1.28601 0.57726,2.92271 0.61307,3.63712 l 0.0661,1.29898 -12.78886,0.13893 c -9.84932,0.10681 -12.90212,-0.0121 -13.28176,-0.51959 -0.48098,-0.64267 -0.76132,-1.7365 -2.49904,-9.75126 -0.94442,-4.35636 -1.58523,-7.25239 -2.32812,-10.52171 -0.27585,-1.21451 -0.87669,-3.96186 -1.33482,-6.10519 -1.21864,-5.6993 -1.80977,-8.34745 -2.32012,-10.39175 -0.54314,-2.17571 -1.20983,-5.13834 -2.33814,-10.39181 -1.28604,-5.9872 -2.50917,-11.46669 -3.45015,-15.4578 l -0.64318,-2.72786 -25.82658,0 -25.82659,0 0.47234,1.94848 c 0.54208,2.2359 0.858,3.65349 2.8072,12.60003 0.77814,3.57221 1.59584,7.31323 1.81694,8.31347 0.53174,2.40403 2.9775,13.59905 3.68914,16.88663 0.30931,1.42889 0.75153,3.41633 0.98283,4.41651 0.23124,1.00023 0.81681,3.6891 1.30146,5.9753 0.48457,2.2862 1.10189,5.09199 1.37203,6.23508 0.82187,3.4781 1.56549,7.21664 1.65368,8.31342 0.0816,1.00988 -0.27708,1.0431 -12.70515,1.17805 -9.84939,0.10681 -12.90214,-0.0121 -13.28178,-0.51959 z m 58.06387,-91.45674 c -0.25235,-0.643 -0.74199,-2.57198 -1.08785,-4.28663 -0.3457,-1.71464 -0.82341,-3.81898 -1.06133,-4.6763 -0.238,-0.85732 -0.70127,-2.96167 -1.02951,-4.67631 -0.32816,-1.71464 -0.80816,-3.99435 -1.06656,-5.066 -0.92948,-3.85697 -1.40336,-5.94701 -2.79726,-12.34026 -0.77886,-3.57218 -1.60292,-7.31322 -1.83121,-8.31344 -1.00765,-4.41391 -1.6102,-7.22614 -2.17123,-10.13199 -0.33092,-1.71465 -0.82438,-3.40981 -1.09633,-3.76703 -0.3838,-0.50395 -6.17789,-0.64948 -25.86012,-0.64948 -13.95112,0 -25.46875,0.17536 -25.59465,0.38968 -0.12646,0.21433 0.0848,1.67568 0.46777,3.24744 0.38306,1.57177 0.9263,3.90992 1.2068,5.19589 0.51214,2.34772 1.71846,7.70282 2.66296,11.82068 0.47087,2.05368 0.74264,3.26702 2.0357,9.09281 0.26973,1.21455 1.096,4.89714 1.83647,8.18355 0.74044,3.2864 1.55561,6.91055 1.81164,8.05364 0.60948,2.72171 1.62578,7.03634 1.92767,8.18354 0.2238,0.85061 1.91175,0.90928 26.17261,0.90928 l 25.93321,0 z"
       id="path4138"
       inkscape:connector-curvature="0"
       sodipodi:nodetypes="cscssssscccsccsccsssccccsscssscssssccscssssccsscccssssccccsscccccssccscscsccscsssccccsscsccsscscscsccsccsccscssscscccsssssccssssccccssccsccsscccsccscccccscsccscssssssccsccsccccssscsccscscssssscccsssscccccccssccscscsscccccccccsccccccccccccccsccccsccscscscssccccsccccccccccsccscccccccccscccssccccscscsccsscccsscscccsccssccscscccccssscsccscccsssccccccccsccsccscscccsccscsccsscscsssccsccsssssccccscsccsccsscsccsssccccscscscsccssssccccccsccccssscscccscccscscsccsccccscccccccsccsccsccccsccscscscccccccccccccccscccccccccsccsccccsscccccscccccsscsccc" />
  </g>
</svg>
